<svg width="20" height="20" viewBox="0 0 20 20" fill="none" xmlns="http://www.w3.org/2000/svg">
<path d="M9.1665 4.5835H17.4998" stroke="white" stroke-width="1.5" stroke-linecap="round"/>
<path d="M4.5 14.0773C5.38889 14.6727 5.83333 14.9703 5.83333 15.4168C5.83333 15.8633 5.38889 16.161 4.5 16.7563C3.61111 17.3517 3.16667 17.6493 2.83333 17.4261C2.5 17.2028 2.5 16.6075 2.5 15.4168C2.5 14.2262 2.5 13.6308 2.83333 13.4076C3.16667 13.1844 3.61111 13.482 4.5 14.0773Z" stroke="white" stroke-width="1.5" stroke-linecap="round"/>
<path d="M4.5 3.24386C5.38889 3.83918 5.83333 4.13684 5.83333 4.58333C5.83333 5.02982 5.38889 5.32748 4.5 5.92281C3.61111 6.51813 3.16667 6.81579 2.83333 6.59254C2.5 6.3693 2.5 5.77397 2.5 4.58333C2.5 3.39269 2.5 2.79737 2.83333 2.57412C3.16667 2.35087 3.61111 2.64853 4.5 3.24386Z" stroke="white" stroke-width="1.5" stroke-linecap="round"/>
<path d="M9.1665 10H17.4998" stroke="white" stroke-width="1.5" stroke-linecap="round"/>
<path d="M9.1665 15.4165H17.4998" stroke="white" stroke-width="1.5" stroke-linecap="round"/>
</svg>
