<svg width="42" height="33" viewBox="0 0 42 33" fill="none" xmlns="http://www.w3.org/2000/svg">
<path fill-rule="evenodd" clip-rule="evenodd" d="M38.1168 13.8139C38.2212 13.4652 38.3733 13.3233 38.7873 13.2776C40.3006 13.1088 41.3254 11.8163 41.0729 10.4594C40.8197 9.11047 39.3806 8.19891 37.8882 8.44291C36.4043 8.68691 35.3974 10.014 35.7103 11.3441C35.761 11.5585 35.7133 11.6629 35.5019 11.773C34.4561 12.3136 33.416 12.8628 32.3755 13.4121C32.1356 13.5388 31.8956 13.6655 31.6556 13.7921C31.2422 14.0087 30.8296 14.2259 30.4132 14.4451C30.0042 14.6603 29.5916 14.8775 29.1708 15.0981C28.7311 14.4418 28.2919 13.7862 27.853 13.1313C25.9254 10.2543 24.0056 7.38904 22.0861 4.52581C23.5218 3.22526 23.68 1.86564 22.5478 0.766458C21.5886 -0.163899 19.9351 -0.26056 18.8387 0.549307C18.2637 0.975553 17.9333 1.52262 17.8498 2.1875C17.7278 3.17391 18.1895 3.93276 19.0476 4.51205C17.2853 7.14154 15.5359 9.75037 13.79 12.354C13.1807 13.2627 12.5718 14.1708 11.9629 15.0789C11.9413 15.0713 11.9227 15.0651 11.9063 15.0595C11.8705 15.0475 11.8451 15.039 11.8226 15.0279C11.4572 14.8356 11.0918 14.6433 10.7266 14.451C9.01398 13.5495 7.30344 12.6491 5.58707 11.7539C5.37562 11.6441 5.38159 11.5287 5.41441 11.341C5.41845 11.3265 5.41975 11.3132 5.4211 11.2994C5.42174 11.2929 5.42239 11.2862 5.42336 11.2793V11.2632C5.43231 11.2179 5.44126 11.1722 5.44722 11.1266C5.45319 11.0813 5.45617 11.0356 5.45916 10.9873C5.46214 10.9474 5.46214 10.9044 5.46214 10.8614C5.46214 10.8185 5.46214 10.7755 5.45916 10.7352C5.44126 10.1106 5.18208 9.56357 4.66074 9.1239C4.60741 9.0759 4.55371 9.03026 4.49404 8.9873C4.45832 8.96158 4.4226 8.93757 4.38536 8.91254C4.37595 8.90621 4.36644 8.89982 4.35681 8.89332C4.23151 8.81009 4.1036 8.73793 3.97531 8.67617C3.93056 8.65469 3.8888 8.6359 3.84405 8.6171C3.83257 8.61366 3.82109 8.60911 3.8104 8.60488C3.80442 8.60251 3.79868 8.60023 3.79333 8.59831C3.77244 8.59025 3.75155 8.58287 3.73067 8.57548C3.70979 8.5681 3.68891 8.56071 3.66803 8.55266C3.31935 8.4268 2.95613 8.38116 2.58955 8.40801C2.54181 8.41069 2.49706 8.41338 2.44933 8.41875C2.3658 8.42949 2.28263 8.44291 2.1991 8.45902C2.19612 8.45902 2.19313 8.45969 2.19015 8.46036C2.18717 8.46104 2.18418 8.46171 2.1812 8.46171C1.94887 8.51004 1.71654 8.58757 1.48123 8.69228C1.38875 8.73222 1.29962 8.77787 1.21907 8.8262C1.20117 8.83157 1.18625 8.84231 1.17134 8.85573C1.0341 8.93628 0.915142 9.02724 0.804758 9.12927L0.765975 9.16417C0.757027 9.17312 0.747747 9.18207 0.738468 9.19102C0.719903 9.20892 0.701337 9.22682 0.685424 9.24472C0.655591 9.27426 0.625757 9.30648 0.598907 9.3387C0.375529 9.59881 0.214801 9.90154 0.0924838 10.2315L0.0835338 10.2556C0.0298335 10.449 0 10.6527 0 10.8618C0 11.0521 0.0238668 11.24 0.0716004 11.4169L0.0805504 11.4411C0.211818 11.8462 0.405363 12.1865 0.658574 12.4627C0.668698 12.4755 0.680196 12.487 0.692136 12.4989C0.697788 12.5046 0.70354 12.5104 0.709291 12.5164C0.908803 12.7255 1.15008 12.897 1.42716 13.0232L1.42717 13.0232C1.43612 13.0286 1.44506 13.034 1.45401 13.0366C1.74899 13.1709 2.08536 13.2565 2.46387 13.2967C2.51161 13.3021 2.55337 13.3075 2.58917 13.3182C2.82784 13.3716 2.90802 13.5032 2.97365 13.723C3.40487 15.1354 3.83745 16.5478 4.27004 17.9603C4.96986 20.2453 5.66971 22.5304 6.36386 24.8155C6.45634 25.1236 6.59022 25.2283 6.9568 25.2283C16.0165 25.2175 25.0765 25.2175 34.1362 25.2283C34.5147 25.2283 34.6605 25.1293 34.762 24.8047C35.3176 22.972 35.8785 21.1407 36.4394 19.3094C37.0002 17.478 37.5611 15.6466 38.1168 13.8139ZM17.0337 32.1912C18.2092 32.1912 19.3847 32.1911 20.5602 32.1911C23.9869 32.1911 27.4137 32.1911 30.8401 32.1914C31.1292 32.1914 31.4183 32.193 31.7075 32.1946C32.3554 32.1982 33.0033 32.2018 33.6508 32.1874C35.5638 32.1448 36.6721 30.4435 35.7093 29.0311C35.1958 28.2777 34.394 28.029 33.449 28.0293C26.8073 28.0324 20.1659 28.0321 13.5243 28.0318C11.5725 28.0317 9.62064 28.0316 7.66876 28.0316C7.64785 28.0316 7.62691 28.0315 7.60596 28.0314C7.54659 28.031 7.48712 28.0306 7.42786 28.0333C5.84556 28.1055 4.80027 29.253 5.12658 30.5589C5.3824 31.5819 6.3091 32.1897 7.62998 32.1904C10.7647 32.1916 13.8991 32.1914 17.0337 32.1912Z" fill="white"/>
</svg>
