<svg width="20" height="20" viewBox="0 0 20 20" fill="none" xmlns="http://www.w3.org/2000/svg">
<path d="M17.3117 15C17.9361 15 18.4327 14.6071 18.8787 14.0576C19.7916 12.9328 18.2927 12.034 17.7211 11.5938C17.14 11.1463 16.4912 10.8928 15.8333 10.8333M15 9.16667C16.1506 9.16667 17.0833 8.23392 17.0833 7.08333C17.0833 5.93274 16.1506 5 15 5" stroke="white" stroke-width="1.25" stroke-linecap="round"/>
<path d="M2.68847 15C2.06404 15 1.56739 14.6071 1.12145 14.0576C0.208572 12.9328 1.70739 12.034 2.27903 11.5938C2.86014 11.1463 3.50898 10.8928 4.16683 10.8333M4.5835 9.16667C3.43291 9.16667 2.50017 8.23392 2.50017 7.08333C2.50017 5.93274 3.43291 5 4.5835 5" stroke="white" stroke-width="1.25" stroke-linecap="round"/>
<path d="M6.73618 12.5925C5.88469 13.119 3.65216 14.1941 5.01193 15.5393C5.67616 16.1965 6.41594 16.6665 7.34603 16.6665H12.6534C13.5834 16.6665 14.3232 16.1965 14.9874 15.5393C16.3472 14.1941 14.1147 13.119 13.2632 12.5925C11.2664 11.3578 8.73286 11.3578 6.73618 12.5925Z" stroke="white" stroke-width="1.25" stroke-linecap="round" stroke-linejoin="round"/>
<path d="M12.9164 6.25016C12.9164 7.861 11.6105 9.16683 9.99969 9.16683C8.38886 9.16683 7.08301 7.861 7.08301 6.25016C7.08301 4.63933 8.38886 3.3335 9.99969 3.3335C11.6105 3.3335 12.9164 4.63933 12.9164 6.25016Z" stroke="white" stroke-width="1.25"/>
</svg>
