<svg width="20" height="20" viewBox="0 0 20 20" fill="none" xmlns="http://www.w3.org/2000/svg">
<g clip-path="url(#clip0_1293_1267)">
<path d="M7.49959 19.6713L7.29073 16.6307C7.17844 14.9959 8.42351 13.6055 9.99959 13.6055C11.5757 13.6055 12.8208 14.9959 12.7084 16.6307L12.4996 19.6713" stroke="white" stroke-width="1.25"/>
<path d="M1.95982 12.0573C1.66563 10.0666 1.51854 9.07132 1.88047 8.18896C2.24238 7.3066 3.04535 6.70289 4.65128 5.49547L5.85115 4.59335C7.8489 3.09134 8.84776 2.34033 10.0003 2.34033C11.1528 2.34033 12.1518 3.09134 14.1495 4.59335L15.3493 5.49547C16.9553 6.70289 17.7583 7.3066 18.1202 8.18896C18.4821 9.07132 18.335 10.0666 18.0408 12.0573L17.79 13.7548C17.3729 16.5767 17.1644 17.9877 16.1912 18.8294C15.2179 19.6712 13.795 19.6712 10.9493 19.6712H9.05134C6.20561 19.6712 4.78275 19.6712 3.80949 18.8294C2.83623 17.9877 2.62772 16.5767 2.21068 13.7548L1.95982 12.0573Z" stroke="white" stroke-width="1.25" stroke-linejoin="round"/>
</g>
<defs>
<clipPath id="clip0_1293_1267">
<rect width="20" height="20" fill="white"/>
</clipPath>
</defs>
</svg>
