<svg width="20" height="20" viewBox="0 0 20 20" fill="none" xmlns="http://www.w3.org/2000/svg">
<path d="M6.66504 13.3337H9.99833M6.66504 9.16699H13.3317" stroke="white" stroke-width="1.25" stroke-linecap="round"/>
<path d="M6.25017 2.91699C4.95367 2.95588 4.18067 3.10019 3.64581 3.63555C2.91357 4.36847 2.91357 5.54808 2.91357 7.90729V13.329C2.91357 15.6882 2.91357 16.8678 3.64581 17.6007C4.37804 18.3337 5.55656 18.3337 7.91357 18.3337H12.0802C14.4372 18.3337 15.6157 18.3337 16.348 17.6007C17.0802 16.8678 17.0802 15.6882 17.0802 13.329V7.90729C17.0802 5.54808 17.0802 4.36847 16.348 3.63556C15.8132 3.10019 15.0402 2.95588 13.7437 2.91699" stroke="white" stroke-width="1.25"/>
<path d="M6.24658 3.12533C6.24658 2.31991 6.89951 1.66699 7.70492 1.66699H12.2883C13.0937 1.66699 13.7466 2.31991 13.7466 3.12533C13.7466 3.93074 13.0937 4.58366 12.2883 4.58366H7.70492C6.89951 4.58366 6.24658 3.93074 6.24658 3.12533Z" stroke="white" stroke-width="1.25" stroke-linejoin="round"/>
</svg>
