<svg width="20" height="20" viewBox="0 0 20 20" fill="none" xmlns="http://www.w3.org/2000/svg">
<path d="M13.3335 11.667C13.3335 12.3573 13.8932 12.917 14.5835 12.917C15.2738 12.917 15.8335 12.3573 15.8335 11.667C15.8335 10.9767 15.2738 10.417 14.5835 10.417C13.8932 10.417 13.3335 10.9767 13.3335 11.667Z" stroke="white" stroke-width="1.25"/>
<path d="M15.75 6.66699C15.8047 6.39773 15.8333 6.11905 15.8333 5.83366C15.8333 3.53248 13.9678 1.66699 11.6667 1.66699C9.3655 1.66699 7.5 3.53248 7.5 5.83366C7.5 6.11905 7.52869 6.39773 7.58335 6.66699" stroke="white" stroke-width="1.25"/>
<path d="M5.83317 6.66071H13.3332C15.6902 6.66071 16.8687 6.66071 17.6009 7.39329C18.3332 8.12588 18.3332 9.30492 18.3332 11.6631V13.3306C18.3332 15.6888 18.3332 16.8678 17.6009 17.6004C16.8687 18.333 15.6902 18.333 13.3332 18.333H8.33317C5.19047 18.333 3.61913 18.333 2.64281 17.3563C1.6665 16.3794 1.6665 14.8073 1.6665 11.6631V9.99567C1.6665 6.85143 1.6665 5.27932 2.64281 4.30254C3.42872 3.51626 4.6002 3.36292 6.6665 3.33301H8.33317" stroke="white" stroke-width="1.25" stroke-linecap="round"/>
</svg>
