<svg width="20" height="20" viewBox="0 0 20 20" fill="none" xmlns="http://www.w3.org/2000/svg">
<path d="M1.87993 13.0272C1.90823 12.7578 2.10341 12.5407 2.49376 12.1067L3.35299 11.1461C3.56301 10.8802 3.71206 10.417 3.71206 10.0002C3.71206 9.58366 3.56296 9.12033 3.35296 8.85449L2.49376 7.89392C2.10341 7.4598 1.90822 7.24274 1.87993 6.97339C1.85163 6.70404 1.99743 6.45102 2.28902 5.94498L2.70034 5.23114C3.01142 4.69128 3.16696 4.42135 3.43161 4.31372C3.69626 4.20608 3.99556 4.29102 4.59417 4.46088L5.61103 4.7473C5.99321 4.83543 6.39416 4.78543 6.74312 4.60614L7.02386 4.44417C7.32309 4.25251 7.55326 3.96993 7.68066 3.63777L7.95896 2.80661C8.14193 2.2566 8.23342 1.98159 8.45121 1.82429C8.66904 1.66699 8.95837 1.66699 9.53696 1.66699H10.466C11.0446 1.66699 11.334 1.66699 11.5517 1.82429C11.7695 1.98159 11.861 2.2566 12.044 2.80661L12.3223 3.63777C12.4497 3.96993 12.6799 4.25251 12.9791 4.44417L13.2599 4.60614C13.6088 4.78543 14.0098 4.83543 14.392 4.7473L15.4088 4.46088C16.0074 4.29102 16.3067 4.20608 16.5714 4.31372C16.836 4.42135 16.9915 4.69128 17.3026 5.23114L17.714 5.94498C18.0055 6.45102 18.1513 6.70404 18.123 6.97339C18.0947 7.24274 17.8995 7.4598 17.5092 7.89392L16.65 8.85449C16.44 9.12033 16.2909 9.58366 16.2909 10.0002C16.2909 10.417 16.44 10.8802 16.65 11.1461L17.5092 12.1067C17.8995 12.5407 18.0947 12.7578 18.123 13.0272C18.1513 13.2966 18.0055 13.5496 17.714 14.0556L17.3026 14.7694C16.9915 15.3092 16.836 15.5792 16.5714 15.6868C16.3067 15.7945 16.0074 15.7096 15.4088 15.5397L14.392 15.2532C14.0097 15.1651 13.6087 15.2152 13.2597 15.3945L12.979 15.5565C12.6798 15.7482 12.4497 16.0307 12.3224 16.3628L12.044 17.1941C11.861 17.7441 11.7695 18.0191 11.5517 18.1763C11.334 18.3337 11.0446 18.3337 10.466 18.3337H9.53696C8.95837 18.3337 8.66904 18.3337 8.45121 18.1763C8.23342 18.0191 8.14193 17.7441 7.95896 17.1941" stroke="white" stroke-width="1.25" stroke-linecap="round"/>
<path d="M2.28096 15.6502C3.18096 14.7502 6.24096 11.7202 6.54096 11.3702C6.8581 11.0002 6.60096 10.5002 6.75396 8.95016C6.82799 8.20016 6.98932 7.63829 7.45096 7.22016C8.00096 6.70016 8.45099 6.70016 10.001 6.66517C11.351 6.70016 11.511 6.55016 11.651 6.90017C11.751 7.15017 11.451 7.30016 11.091 7.70017C10.291 8.50016 9.82099 8.90016 9.77599 9.15016C9.45099 10.2502 10.731 10.9002 11.431 10.2002C11.6957 9.93541 12.921 8.70016 13.041 8.60016C13.131 8.52016 13.3464 8.52399 13.451 8.65016C13.541 8.73858 13.551 8.75016 13.541 9.15016C13.5317 9.52041 13.5358 10.052 13.537 10.6002C13.5384 11.3104 13.501 12.1002 13.201 12.5002C12.601 13.4002 11.601 13.4502 10.701 13.4902C9.85099 13.5402 9.15099 13.4502 8.93099 13.6102C8.75099 13.7002 7.80096 14.7002 6.65096 15.8502L4.60096 17.9002C2.90096 19.2502 1.03096 17.1502 2.28096 15.6502Z" stroke="white" stroke-width="1.25" stroke-linecap="round"/>
</svg>
