<svg width="20" height="20" viewBox="0 0 20 20" fill="none" xmlns="http://www.w3.org/2000/svg">
<path d="M17.4522 14.0292C16.9053 10.7385 15.2027 8.28812 13.7225 6.84884C13.2917 6.43002 13.0764 6.22062 12.6007 6.02682C12.1249 5.83301 11.716 5.83301 10.8982 5.83301H9.10183C8.28401 5.83301 7.87508 5.83301 7.39935 6.02682C6.92361 6.22062 6.70826 6.43002 6.27753 6.84884C4.79735 8.28812 3.09467 10.7385 2.54772 14.0292C2.14077 16.4775 4.39939 18.333 6.9236 18.333H13.0764C15.6006 18.333 17.8592 16.4775 17.4522 14.0292Z" stroke="white" stroke-width="1.25" stroke-linecap="round" stroke-linejoin="round"/>
<path d="M6.04735 3.70272C5.87542 3.45248 5.62623 3.11282 6.14099 3.03537C6.6701 2.95575 7.2195 3.31794 7.75729 3.3105C8.2438 3.30377 8.49166 3.08798 8.75758 2.77989C9.03758 2.45547 9.47116 1.66699 10.0002 1.66699C10.5292 1.66699 10.9627 2.45547 11.2427 2.77989C11.5087 3.08798 11.7565 3.30377 12.243 3.3105C12.7808 3.31794 13.3302 2.95575 13.8593 3.03537C14.3741 3.11282 14.1249 3.45248 13.953 3.70272L13.1756 4.83419C12.8431 5.31821 12.6768 5.56022 12.3288 5.69694C11.9809 5.83366 11.5312 5.83366 10.632 5.83366H9.36833C8.46908 5.83366 8.01941 5.83366 7.67146 5.69694C7.32351 5.56022 7.15725 5.31821 6.8247 4.83419L6.04735 3.70272Z" stroke="white" stroke-width="1.25" stroke-linejoin="round"/>
<path d="M11.3554 10.7651C11.1753 10.1 10.2583 9.49982 9.15751 9.94882C8.05675 10.3977 7.8819 11.8423 9.54692 11.9958C10.2994 12.0652 10.7901 11.9153 11.2393 12.3392C11.6885 12.7631 11.7719 13.9419 10.6236 14.2596C9.47526 14.5772 8.33817 14.0809 8.21436 13.376M9.86792 9.16016V9.79382M9.86792 14.3573V14.9935" stroke="white" stroke-width="1.25" stroke-linecap="round" stroke-linejoin="round"/>
</svg>
