<svg width="20" height="20" viewBox="0 0 20 20" fill="none" xmlns="http://www.w3.org/2000/svg">
<path d="M3.3335 15.5385V6.71221C3.3335 4.33387 3.3335 3.1447 4.06573 2.40585C4.79796 1.66699 5.97647 1.66699 8.3335 1.66699H11.6668C14.0238 1.66699 15.2023 1.66699 15.9346 2.40585C16.6668 3.1447 16.6668 4.33387 16.6668 6.71221V15.5385C16.6668 16.7982 16.6668 17.4281 16.2818 17.676C15.6527 18.0812 14.6802 17.2315 14.1911 16.9231C13.7869 16.6682 13.5849 16.5407 13.3606 16.5334C13.1182 16.5254 12.9126 16.6477 12.4759 16.9231L10.8835 17.9273C10.4539 18.1982 10.2392 18.3337 10.0002 18.3337C9.76116 18.3337 9.54641 18.1982 9.11683 17.9273L7.52444 16.9231C7.12029 16.6682 6.91821 16.5407 6.69394 16.5334C6.4516 16.5254 6.24594 16.6477 5.80922 16.9231C5.32012 17.2315 4.34755 18.0812 3.71845 17.676C3.3335 17.4281 3.3335 16.7982 3.3335 15.5385Z" stroke="white" stroke-width="1.25" stroke-linecap="round" stroke-linejoin="round"/>
<path d="M13.3332 5H6.6665" stroke="white" stroke-width="1.25" stroke-linecap="round" stroke-linejoin="round"/>
<path d="M8.33317 8.33301H6.6665" stroke="white" stroke-width="1.25" stroke-linecap="round" stroke-linejoin="round"/>
<path d="M12.0835 8.22917C11.3932 8.22917 10.8335 8.71883 10.8335 9.32292C10.8335 9.927 11.3932 10.4167 12.0835 10.4167C12.7738 10.4167 13.3335 10.9063 13.3335 11.5104C13.3335 12.1145 12.7738 12.6042 12.0835 12.6042M12.0835 8.22917C12.6277 8.22917 13.0907 8.5335 13.2623 8.95833M12.0835 8.22917V7.5M12.0835 12.6042C11.5392 12.6042 11.0762 12.2998 10.9047 11.875M12.0835 12.6042V13.3333" stroke="white" stroke-width="1.25" stroke-linecap="round"/>
</svg>
