<svg width="20" height="20" viewBox="0 0 20 20" fill="none" xmlns="http://www.w3.org/2000/svg">
<path d="M17.0835 8.75V16.25C17.0835 16.6382 17.0835 16.8324 17.0201 16.9856C16.9355 17.1897 16.7732 17.352 16.5691 17.4366C16.4159 17.5 16.2217 17.5 15.8335 17.5C15.4452 17.5 15.2511 17.5 15.0979 17.4366C14.8937 17.352 14.7315 17.1897 14.6469 16.9856C14.5835 16.8324 14.5835 16.6382 14.5835 16.25V8.75C14.5835 8.36175 14.5835 8.16758 14.6469 8.01443C14.7315 7.81024 14.8937 7.64801 15.0979 7.56343C15.2511 7.5 15.4452 7.5 15.8335 7.5C16.2217 7.5 16.4159 7.5 16.5691 7.56343C16.7732 7.64801 16.9355 7.81024 17.0201 8.01443C17.0835 8.16758 17.0835 8.36175 17.0835 8.75Z" stroke="white" stroke-width="1.25" stroke-linejoin="round"/>
<path d="M13.75 2.5H16.25V5" stroke="white" stroke-width="1.25" stroke-linecap="round" stroke-linejoin="round"/>
<path d="M15.8333 2.91699C15.8333 2.91699 12.5 7.08366 3.75 10.0003" stroke="white" stroke-width="1.25" stroke-linecap="round" stroke-linejoin="round"/>
<path d="M11.25 11.667V16.2503C11.25 16.6386 11.25 16.8327 11.1866 16.9859C11.102 17.1901 10.9397 17.3523 10.7356 17.4369C10.5824 17.5003 10.3882 17.5003 10 17.5003C9.61175 17.5003 9.41758 17.5003 9.26442 17.4369C9.06025 17.3523 8.898 17.1901 8.81342 16.9859C8.75 16.8327 8.75 16.6386 8.75 16.2503V11.667C8.75 11.2787 8.75 11.0846 8.81342 10.9314C8.898 10.7272 9.06025 10.565 9.26442 10.4804C9.41758 10.417 9.61175 10.417 10 10.417C10.3882 10.417 10.5824 10.417 10.7356 10.4804C10.9397 10.565 11.102 10.7272 11.1866 10.9314C11.25 11.0846 11.25 11.2787 11.25 11.667Z" stroke="white" stroke-width="1.25" stroke-linejoin="round"/>
<path d="M5.4165 13.75V16.25C5.4165 16.6382 5.4165 16.8324 5.35307 16.9856C5.2685 17.1897 5.10626 17.352 4.90207 17.4366C4.74893 17.5 4.55479 17.5 4.1665 17.5C3.77822 17.5 3.58408 17.5 3.43094 17.4366C3.22675 17.352 3.06451 17.1897 2.97994 16.9856C2.9165 16.8324 2.9165 16.6382 2.9165 16.25V13.75C2.9165 13.3617 2.9165 13.1676 2.97994 13.0144C3.06451 12.8103 3.22675 12.648 3.43094 12.5634C3.58408 12.5 3.77822 12.5 4.1665 12.5C4.55479 12.5 4.74893 12.5 4.90207 12.5634C5.10626 12.648 5.2685 12.8103 5.35307 13.0144C5.4165 13.1676 5.4165 13.3617 5.4165 13.75Z" stroke="white" stroke-width="1.25" stroke-linejoin="round"/>
</svg>
