<svg width="20" height="20" viewBox="0 0 20 20" fill="none" xmlns="http://www.w3.org/2000/svg">
<path d="M6.66667 13.3332H12.7193C16.459 13.3332 17.0277 10.9838 17.7175 7.5574C17.9165 6.5691 18.016 6.07495 17.7767 5.74573C17.5375 5.4165 17.0789 5.4165 16.1617 5.4165H5" stroke="white" stroke-width="1.25" stroke-linecap="round"/>
<path d="M6.66683 13.3332L4.48244 2.92895C4.29695 2.187 3.63031 1.6665 2.86554 1.6665H2.0835" stroke="white" stroke-width="1.25" stroke-linecap="round"/>
<path d="M7.4 13.3335H7.05714C5.92102 13.3335 5 14.2929 5 15.4763C5 15.6736 5.1535 15.8335 5.34286 15.8335H14.5833" stroke="white" stroke-width="1.25" stroke-linecap="round" stroke-linejoin="round"/>
<path d="M8.75 18.3335C9.44036 18.3335 10 17.7739 10 17.0835C10 16.3931 9.44036 15.8335 8.75 15.8335C8.05964 15.8335 7.5 16.3931 7.5 17.0835C7.5 17.7739 8.05964 18.3335 8.75 18.3335Z" stroke="white" stroke-width="1.25"/>
<path d="M14.5835 18.3335C15.2739 18.3335 15.8335 17.7739 15.8335 17.0835C15.8335 16.3931 15.2739 15.8335 14.5835 15.8335C13.8931 15.8335 13.3335 16.3931 13.3335 17.0835C13.3335 17.7739 13.8931 18.3335 14.5835 18.3335Z" stroke="white" stroke-width="1.25"/>
</svg>
