<svg width="20" height="20" viewBox="0 0 20 20" fill="none" xmlns="http://www.w3.org/2000/svg">
<path d="M10.8332 18.3337C10.1513 18.3337 9.5 18.0493 8.19726 17.4807C6.67678 16.817 5.51279 16.3089 4.70524 15.8337H1.6665M10.8332 18.3337C11.515 18.3337 12.1663 18.0493 13.4691 17.4807C16.7118 16.0652 18.3332 15.3575 18.3332 14.167V5.41699M10.8332 18.3337V9.16699M3.33317 5.41699V7.91699" stroke="white" stroke-width="1.25" stroke-linecap="round" stroke-linejoin="round"/>
<path d="M7.77176 8.07647L5.33743 6.89853C4.00147 6.25208 3.3335 5.92885 3.3335 5.41699C3.3335 4.90513 4.00147 4.58191 5.33743 3.93545L7.77176 2.75751C9.27416 2.0305 10.0254 1.66699 10.8335 1.66699C11.6416 1.66699 12.3928 2.03049 13.8952 2.75751L16.3296 3.93545C17.6655 4.58191 18.3335 4.90513 18.3335 5.41699C18.3335 5.92885 17.6655 6.25208 16.3296 6.89853L13.8952 8.07647C12.3928 8.80349 11.6416 9.16699 10.8335 9.16699C10.0254 9.16699 9.27416 8.80349 7.77176 8.07647Z" stroke="white" stroke-width="1.25" stroke-linecap="round" stroke-linejoin="round"/>
<path d="M15.114 3.34668L6.55615 7.4877" stroke="white" stroke-width="1.25" stroke-linecap="round" stroke-linejoin="round"/>
<path d="M1.6665 10.833H4.1665" stroke="white" stroke-width="1.25" stroke-linecap="round" stroke-linejoin="round"/>
<path d="M1.6665 13.333H4.1665" stroke="white" stroke-width="1.25" stroke-linecap="round" stroke-linejoin="round"/>
</svg>
