<svg width="20" height="20" viewBox="0 0 20 20" fill="none" xmlns="http://www.w3.org/2000/svg">
<path d="M9.99984 18.333L8.33317 13.333H1.6665L3.33317 18.333H9.99984ZM9.99984 18.333H13.3332" stroke="white" stroke-width="1.25" stroke-linecap="round" stroke-linejoin="round"/>
<path d="M10.0002 10.833V10.4163C10.0002 8.84501 10.0002 8.05932 9.512 7.57117C9.02383 7.08301 8.23818 7.08301 6.66683 7.08301C5.09548 7.08301 4.3098 7.08301 3.82165 7.57117C3.3335 8.05932 3.3335 8.84501 3.3335 10.4163V10.833" stroke="white" stroke-width="1.25" stroke-linecap="round" stroke-linejoin="round"/>
<path d="M15.8333 10.8337C15.8333 11.7542 15.0872 12.5003 14.1667 12.5003C13.2462 12.5003 12.5 11.7542 12.5 10.8337C12.5 9.91316 13.2462 9.16699 14.1667 9.16699C15.0872 9.16699 15.8333 9.91316 15.8333 10.8337Z" stroke="white" stroke-width="1.25"/>
<path d="M8.33333 3.33366C8.33333 4.25413 7.58714 5.00033 6.66667 5.00033C5.74619 5.00033 5 4.25413 5 3.33366C5 2.41318 5.74619 1.66699 6.66667 1.66699C7.58714 1.66699 8.33333 2.41318 8.33333 3.33366Z" stroke="white" stroke-width="1.25"/>
<path d="M11.6665 14.583H16.6665C17.587 14.583 18.3332 15.3292 18.3332 16.2497V16.6663C18.3332 17.5868 17.587 18.333 16.6665 18.333H15.8332" stroke="white" stroke-width="1.25" stroke-linecap="round"/>
</svg>
