<svg width="20" height="20" viewBox="0 0 20 20" fill="none" xmlns="http://www.w3.org/2000/svg">
<path d="M2.05344 7.78678C1.84632 7.78678 1.65732 7.6189 1.66685 7.39945C1.72261 6.11438 1.87884 5.27781 2.31657 4.61603C2.5684 4.23529 2.88121 3.90415 3.24086 3.63756C4.21296 2.91699 5.58432 2.91699 8.32705 2.91699H11.6726C14.4154 2.91699 15.7867 2.91699 16.7589 3.63756C17.1185 3.90415 17.4313 4.23529 17.6831 4.61603C18.1208 5.27773 18.277 6.1142 18.3328 7.39902C18.3424 7.61873 18.1531 7.78678 17.9458 7.78678C16.7909 7.78678 15.8548 8.77783 15.8548 10.0003C15.8548 11.2228 16.7909 12.2138 17.9458 12.2138C18.1531 12.2138 18.3424 12.3819 18.3328 12.6017C18.277 13.8865 18.1208 14.7229 17.6831 15.3847C17.4313 15.7653 17.1185 16.0965 16.7589 16.3631C15.7867 17.0837 14.4154 17.0837 11.6726 17.0837H8.32705C5.58432 17.0837 4.21296 17.0837 3.24086 16.3631C2.88121 16.0965 2.5684 15.7653 2.31657 15.3847C1.87884 14.7228 1.72261 13.8862 1.66685 12.6012C1.65732 12.3817 1.84632 12.2138 2.05344 12.2138C3.20827 12.2138 4.14443 11.2228 4.14443 10.0003C4.14443 8.77783 3.20827 7.78678 2.05344 7.78678Z" stroke="white" stroke-width="1.25" stroke-linejoin="round"/>
<path d="M7.9165 12.0837L12.0832 7.91699" stroke="white" stroke-width="1.25" stroke-linecap="round" stroke-linejoin="round"/>
<path d="M7.9165 7.91699H7.92586M12.0738 12.0837H12.0832" stroke="white" stroke-width="1.66667" stroke-linecap="round" stroke-linejoin="round"/>
</svg>
