<svg width="20" height="20" viewBox="0 0 20 20" fill="none" xmlns="http://www.w3.org/2000/svg">
<path d="M16.68 1.66699C15.7522 1.66699 15 3.90557 15 6.66699H16.68C17.4897 6.66699 17.8945 6.66699 18.1451 6.38745C18.3957 6.1079 18.3521 5.73977 18.2648 5.0035C18.0345 3.05985 17.4119 1.66699 16.68 1.66699Z" stroke="white" stroke-width="1.25"/>
<path d="M14.9998 6.71221V15.5385C14.9998 16.7982 14.9998 17.4281 14.6148 17.676C13.9858 18.0812 13.0133 17.2315 12.5241 16.9231C12.1199 16.6682 11.9179 16.5407 11.6936 16.5334C11.4513 16.5254 11.2456 16.6477 10.8089 16.9231L9.2165 17.9273C8.78692 18.1982 8.57217 18.3337 8.33317 18.3337C8.09418 18.3337 7.87939 18.1982 7.44984 17.9273L5.85745 16.9231C5.4533 16.6682 5.25122 16.5407 5.02695 16.5334C4.7846 16.5254 4.57895 16.6477 4.14223 16.9231C3.65313 17.2315 2.68056 18.0812 2.05146 17.676C1.6665 17.4281 1.6665 16.7982 1.6665 15.5385V6.71221C1.6665 4.33387 1.6665 3.1447 2.39874 2.40585C3.13097 1.66699 4.30948 1.66699 6.6665 1.66699H16.6665" stroke="white" stroke-width="1.25" stroke-linecap="round" stroke-linejoin="round"/>
<path d="M5 5H11.6667" stroke="white" stroke-width="1.25" stroke-linecap="round" stroke-linejoin="round"/>
<path d="M6.66667 8.33301H5" stroke="white" stroke-width="1.25" stroke-linecap="round" stroke-linejoin="round"/>
<path d="M10.4165 9.06217C9.72617 9.06217 9.1665 9.55184 9.1665 10.1559C9.1665 10.76 9.72617 11.2497 10.4165 11.2497C11.1068 11.2497 11.6665 11.7393 11.6665 12.3434C11.6665 12.9475 11.1068 13.4372 10.4165 13.4372M10.4165 9.06217C10.9608 9.06217 11.4238 9.36651 11.5953 9.79134M10.4165 9.06217V8.33301M10.4165 13.4372C9.87225 13.4372 9.40925 13.1328 9.23767 12.708M10.4165 13.4372V14.1663" stroke="white" stroke-width="1.25" stroke-linecap="round"/>
</svg>
