<svg width="20" height="20" viewBox="0 0 20 20" fill="none" xmlns="http://www.w3.org/2000/svg">
<path d="M7.0835 13.7503C7.66569 12.7439 8.75388 12.0667 10.0001 12.0667C11.2465 12.0667 12.3346 12.7439 12.9168 13.7503M11.6669 8.33366C11.6669 9.25416 10.9206 10.0003 10.0002 10.0003C9.07971 10.0003 8.33352 9.25416 8.33352 8.33366C8.33352 7.41318 9.07971 6.66699 10.0002 6.66699C10.9206 6.66699 11.6669 7.41318 11.6669 8.33366Z" stroke="white" stroke-width="1.25" stroke-linecap="round"/>
<path d="M18.3332 11.6388V8.36067C15.9526 8.36067 14.4046 5.77502 15.6098 3.7221L12.7231 2.08309C11.503 4.16138 8.498 4.1613 7.27786 2.08301L4.39111 3.72202C5.59639 5.77497 4.04711 8.36067 1.6665 8.36067V11.6388C4.04707 11.6388 5.59505 14.2244 4.3898 16.2773L7.27655 17.9163C8.49725 15.837 11.5037 15.8369 12.7244 17.9163L15.6112 16.2773C14.406 14.2243 15.9527 11.6388 18.3332 11.6388Z" stroke="white" stroke-width="1.25" stroke-linecap="round" stroke-linejoin="round"/>
</svg>
