<svg width="52" height="44" viewBox="0 0 52 44" fill="none" xmlns="http://www.w3.org/2000/svg">
<path fill-rule="evenodd" clip-rule="evenodd" d="M45.3019 3.14286H6.69812C5.84493 3.14286 5.02667 3.47398 4.42337 4.06338C3.82007 4.65278 3.48114 5.45218 3.48114 6.28571V37.7143C3.48114 38.5478 3.82007 39.3472 4.42337 39.9366C5.02667 40.526 5.84493 40.8571 6.69812 40.8571H45.3019C46.1551 40.8571 46.9733 40.526 47.5766 39.9366C48.1799 39.3472 48.5189 38.5478 48.5189 37.7143V6.28571C48.5189 5.45218 48.1799 4.65278 47.5766 4.06338C46.9733 3.47398 46.1551 3.14286 45.3019 3.14286ZM6.69812 0C4.99173 0 3.35523 0.662243 2.14862 1.84104C0.942022 3.01984 0.26416 4.61864 0.26416 6.28571V37.7143C0.26416 39.3814 0.942022 40.9802 2.14862 42.159C3.35523 43.3378 4.99173 44 6.69812 44H45.3019C46.1468 44 46.9835 43.8374 47.7641 43.5215C48.5447 43.2056 49.2539 42.7426 49.8514 42.159C50.4488 41.5753 50.9228 40.8823 51.2461 40.1197C51.5694 39.3571 51.7359 38.5397 51.7359 37.7143V6.28571C51.7359 4.61864 51.058 3.01984 49.8514 1.84104C48.6448 0.662243 47.0083 0 45.3019 0H6.69812Z" fill="#D8D8D8"/>
<path d="M34.512 20.8884C34.7509 20.6556 35.0587 20.5022 35.3918 20.4497C35.7249 20.3973 36.0665 20.4485 36.3682 20.5961L48.5187 26.7153V40.8581H3.48096V34.5724L11.9931 27.1741C12.256 26.9182 12.6015 26.7589 12.9709 26.7234C13.3402 26.6879 13.7108 26.7783 14.0198 26.9793L22.577 32.5515L34.512 20.8915V20.8884Z" fill="#D8D8D8"/>
<path fill-rule="evenodd" clip-rule="evenodd" d="M14.7405 18.8583C15.3742 18.8583 16.0017 18.7363 16.5871 18.4994C17.1726 18.2625 17.7045 17.9152 18.1526 17.4775C18.6007 17.0397 18.9562 16.52 19.1987 15.9481C19.4412 15.3761 19.566 14.7631 19.566 14.144C19.566 13.5249 19.4412 12.9119 19.1987 12.3399C18.9562 11.7679 18.6007 11.2482 18.1526 10.8105C17.7045 10.3727 17.1726 10.0255 16.5871 9.78854C16.0017 9.55163 15.3742 9.42969 14.7405 9.42969C13.4607 9.42969 12.2333 9.92637 11.3284 10.8105C10.4234 11.6946 9.91504 12.8937 9.91504 14.144C9.91504 15.3943 10.4234 16.5934 11.3284 17.4775C12.2333 18.3616 13.4607 18.8583 14.7405 18.8583Z" fill="#D8D8D8"/>
</svg>
