<svg width="277" height="77" viewBox="0 0 277 77" fill="none" xmlns="http://www.w3.org/2000/svg">
<path d="M11.6978 76.0542V50.9949L59.1685 25.5455H40.8377L54.8448 12.1523C56.3438 13.647 57.5901 15.375 58.5353 17.2691C59.9897 20.1252 60.7418 23.287 60.7291 26.4921C60.7291 33.7408 58.1536 39.4694 53.0028 43.678C47.8519 47.8865 40.8846 50.0036 32.1008 50.0291C31.1926 50.0291 30.4955 50.0291 30.0222 50.0291C29.5489 50.0291 29.1395 49.9844 28.743 49.9588V72.1531L11.6978 76.0542Z" fill="white"/>
<path d="M11.6978 41.119V29.4912H23.882L11.6978 41.119Z" fill="white"/>
<path d="M11.6978 26.2234V4.6499H30.0733C35.7188 4.6499 40.196 5.06137 43.5048 5.88432C44.784 6.20602 46.0387 6.61854 47.2592 7.11874L11.6978 26.2234Z" fill="white"/>
<path fill-rule="evenodd" clip-rule="evenodd" d="M64.727 0L13.3995 27.5281H28.7881L0 55.0371L51.3211 27.5281H35.9324L64.727 0Z" fill="#F47100"/>
<path fill-rule="evenodd" clip-rule="evenodd" d="M51.3211 27.5281H35.9324L64.727 0L28.3916 30.9372L38.7338 30.4511L0 55.0371L51.3211 27.5281Z" fill="#F47100"/>
<path fill-rule="evenodd" clip-rule="evenodd" d="M44.7396 12.728L23.4858 24.4006L29.2998 24.1L44.7396 12.728Z" fill="white"/>
<path fill-rule="evenodd" clip-rule="evenodd" d="M21.8994 38.7399L33.6935 32.248L29.0437 32.5039L21.8994 38.7399Z" fill="white"/>
<path d="M76.6548 54V23.4545H88.706C91.0227 23.4545 92.9964 23.897 94.6271 24.782C96.2578 25.657 97.5007 26.875 98.3558 28.4361C99.2209 29.9872 99.6534 31.777 99.6534 33.8054C99.6534 35.8338 99.2159 37.6236 98.3409 39.1747C97.4659 40.7259 96.1982 41.9339 94.5376 42.799C92.8871 43.6641 90.8885 44.0966 88.5419 44.0966H80.8608V38.9212H87.4979C88.7408 38.9212 89.7649 38.7074 90.5703 38.2798C91.3857 37.8423 91.9922 37.2408 92.3899 36.4751C92.7976 35.6996 93.0014 34.8097 93.0014 33.8054C93.0014 32.7912 92.7976 31.9062 92.3899 31.1506C91.9922 30.3849 91.3857 29.7933 90.5703 29.3757C89.755 28.9482 88.7209 28.7344 87.468 28.7344H83.1129V54H76.6548ZM130.238 38.7273C130.238 42.0582 129.606 44.892 128.344 47.2287C127.091 49.5653 125.381 51.3501 123.213 52.5831C121.055 53.8061 118.629 54.4176 115.935 54.4176C113.22 54.4176 110.784 53.8011 108.626 52.5682C106.469 51.3352 104.763 49.5504 103.511 47.2138C102.258 44.8771 101.631 42.0483 101.631 38.7273C101.631 35.3963 102.258 32.5625 103.511 30.2259C104.763 27.8892 106.469 26.1094 108.626 24.8864C110.784 23.6534 113.22 23.0369 115.935 23.0369C118.629 23.0369 121.055 23.6534 123.213 24.8864C125.381 26.1094 127.091 27.8892 128.344 30.2259C129.606 32.5625 130.238 35.3963 130.238 38.7273ZM123.69 38.7273C123.69 36.5696 123.367 34.75 122.721 33.2685C122.084 31.7869 121.185 30.6634 120.021 29.8977C118.858 29.1321 117.496 28.7493 115.935 28.7493C114.373 28.7493 113.011 29.1321 111.848 29.8977C110.685 30.6634 109.78 31.7869 109.133 33.2685C108.497 34.75 108.179 36.5696 108.179 38.7273C108.179 40.8849 108.497 42.7045 109.133 44.1861C109.78 45.6676 110.685 46.7912 111.848 47.5568C113.011 48.3224 114.373 48.7053 115.935 48.7053C117.496 48.7053 118.858 48.3224 120.021 47.5568C121.185 46.7912 122.084 45.6676 122.721 44.1861C123.367 42.7045 123.69 40.8849 123.69 38.7273ZM149.912 32.2393C149.793 31.0362 149.281 30.1016 148.376 29.4354C147.471 28.7692 146.243 28.4361 144.692 28.4361C143.638 28.4361 142.748 28.5852 142.022 28.8835C141.296 29.1719 140.739 29.5746 140.352 30.0916C139.974 30.6087 139.785 31.1953 139.785 31.8516C139.765 32.3984 139.879 32.8757 140.128 33.2834C140.386 33.6911 140.739 34.044 141.187 34.3423C141.634 34.6307 142.151 34.8842 142.738 35.103C143.325 35.3118 143.951 35.4908 144.617 35.6399L147.362 36.2962C148.694 36.5945 149.917 36.9922 151.031 37.4893C152.144 37.9865 153.109 38.598 153.924 39.3239C154.739 40.0497 155.371 40.9048 155.818 41.8892C156.276 42.8736 156.509 44.0021 156.519 45.2749C156.509 47.1442 156.032 48.7649 155.087 50.1371C154.153 51.4993 152.801 52.5582 151.031 53.3139C149.271 54.0597 147.148 54.4325 144.662 54.4325C142.196 54.4325 140.048 54.0547 138.219 53.299C136.399 52.5433 134.977 51.4247 133.953 49.9432C132.939 48.4517 132.407 46.6072 132.357 44.4098H138.607C138.676 45.4339 138.97 46.2891 139.487 46.9751C140.014 47.6513 140.715 48.1634 141.59 48.5114C142.475 48.8494 143.474 49.0185 144.587 49.0185C145.681 49.0185 146.631 48.8594 147.436 48.5412C148.252 48.223 148.883 47.7805 149.33 47.2138C149.778 46.647 150.002 45.9957 150.002 45.2599C150.002 44.5739 149.798 43.9972 149.39 43.5298C148.992 43.0625 148.406 42.6648 147.63 42.3366C146.864 42.0085 145.925 41.7102 144.811 41.4418L141.485 40.6065C138.91 39.9801 136.877 39.0007 135.385 37.6683C133.894 36.3359 133.153 34.5412 133.163 32.2841C133.153 30.4347 133.645 28.8189 134.639 27.4368C135.644 26.0547 137.021 24.9759 138.771 24.2003C140.521 23.4247 142.509 23.0369 144.737 23.0369C147.004 23.0369 148.982 23.4247 150.673 24.2003C152.373 24.9759 153.695 26.0547 154.64 27.4368C155.585 28.8189 156.072 30.4197 156.102 32.2393H149.912ZM183.794 32.2393C183.675 31.0362 183.163 30.1016 182.258 29.4354C181.353 28.7692 180.125 28.4361 178.574 28.4361C177.52 28.4361 176.63 28.5852 175.904 28.8835C175.178 29.1719 174.622 29.5746 174.234 30.0916C173.856 30.6087 173.667 31.1953 173.667 31.8516C173.647 32.3984 173.762 32.8757 174.01 33.2834C174.269 33.6911 174.622 34.044 175.069 34.3423C175.517 34.6307 176.034 34.8842 176.62 35.103C177.207 35.3118 177.833 35.4908 178.499 35.6399L181.244 36.2962C182.576 36.5945 183.799 36.9922 184.913 37.4893C186.026 37.9865 186.991 38.598 187.806 39.3239C188.622 40.0497 189.253 40.9048 189.7 41.8892C190.158 42.8736 190.392 44.0021 190.401 45.2749C190.392 47.1442 189.914 48.7649 188.97 50.1371C188.035 51.4993 186.683 52.5582 184.913 53.3139C183.153 54.0597 181.03 54.4325 178.544 54.4325C176.078 54.4325 173.931 54.0547 172.101 53.299C170.281 52.5433 168.86 51.4247 167.835 49.9432C166.821 48.4517 166.289 46.6072 166.24 44.4098H172.489C172.558 45.4339 172.852 46.2891 173.369 46.9751C173.896 47.6513 174.597 48.1634 175.472 48.5114C176.357 48.8494 177.356 49.0185 178.47 49.0185C179.563 49.0185 180.513 48.8594 181.318 48.5412C182.134 48.223 182.765 47.7805 183.213 47.2138C183.66 46.647 183.884 45.9957 183.884 45.2599C183.884 44.5739 183.68 43.9972 183.272 43.5298C182.874 43.0625 182.288 42.6648 181.512 42.3366C180.747 42.0085 179.807 41.7102 178.693 41.4418L175.367 40.6065C172.792 39.9801 170.759 39.0007 169.267 37.6683C167.776 36.3359 167.035 34.5412 167.045 32.2841C167.035 30.4347 167.527 28.8189 168.521 27.4368C169.526 26.0547 170.903 24.9759 172.653 24.2003C174.403 23.4247 176.392 23.0369 178.619 23.0369C180.886 23.0369 182.865 23.4247 184.555 24.2003C186.255 24.9759 187.578 26.0547 188.522 27.4368C189.467 28.8189 189.954 30.4197 189.984 32.2393H183.794ZM197.633 54H190.713L201.257 23.4545H209.58L220.11 54H213.189L205.538 30.4347H205.299L197.633 54ZM197.2 41.9936H213.547V47.0348H197.2V41.9936ZM227.371 54H220.451L230.995 23.4545H239.318L249.848 54H242.927L235.276 30.4347H235.037L227.371 54ZM226.938 41.9936H243.285V47.0348H226.938V41.9936ZM267.717 32.2393C267.598 31.0362 267.086 30.1016 266.181 29.4354C265.276 28.7692 264.048 28.4361 262.497 28.4361C261.443 28.4361 260.553 28.5852 259.827 28.8835C259.101 29.1719 258.545 29.5746 258.157 30.0916C257.779 30.6087 257.59 31.1953 257.59 31.8516C257.57 32.3984 257.684 32.8757 257.933 33.2834C258.192 33.6911 258.545 34.044 258.992 34.3423C259.439 34.6307 259.956 34.8842 260.543 35.103C261.13 35.3118 261.756 35.4908 262.422 35.6399L265.167 36.2962C266.499 36.5945 267.722 36.9922 268.836 37.4893C269.949 37.9865 270.914 38.598 271.729 39.3239C272.545 40.0497 273.176 40.9048 273.623 41.8892C274.081 42.8736 274.314 44.0021 274.324 45.2749C274.314 47.1442 273.837 48.7649 272.893 50.1371C271.958 51.4993 270.606 52.5582 268.836 53.3139C267.076 54.0597 264.953 54.4325 262.467 54.4325C260.001 54.4325 257.853 54.0547 256.024 53.299C254.204 52.5433 252.782 51.4247 251.758 49.9432C250.744 48.4517 250.212 46.6072 250.162 44.4098H256.412C256.481 45.4339 256.775 46.2891 257.292 46.9751C257.819 47.6513 258.52 48.1634 259.395 48.5114C260.28 48.8494 261.279 49.0185 262.393 49.0185C263.486 49.0185 264.436 48.8594 265.241 48.5412C266.057 48.223 266.688 47.7805 267.135 47.2138C267.583 46.647 267.807 45.9957 267.807 45.2599C267.807 44.5739 267.603 43.9972 267.195 43.5298C266.797 43.0625 266.211 42.6648 265.435 42.3366C264.67 42.0085 263.73 41.7102 262.616 41.4418L259.29 40.6065C256.715 39.9801 254.682 39.0007 253.19 37.6683C251.699 36.3359 250.958 34.5412 250.968 32.2841C250.958 30.4347 251.45 28.8189 252.444 27.4368C253.449 26.0547 254.826 24.9759 256.576 24.2003C258.326 23.4247 260.314 23.0369 262.542 23.0369C264.809 23.0369 266.787 23.4247 268.478 24.2003C270.178 24.9759 271.5 26.0547 272.445 27.4368C273.39 28.8189 273.877 30.4197 273.907 32.2393H267.717Z" fill="white"/>
</svg>
