<?xml version="1.0" encoding="UTF-8"?>
<svg id="Layer_1" xmlns="http://www.w3.org/2000/svg" version="1.1" viewBox="0 0 534 140">
  <!-- Generator: Adobe Illustrator 29.6.0, SVG Export Plug-In . SVG Version: 2.1.1 Build 107)  -->
  <defs>
    <style>
      .st0 {
        fill: #fff;
      }

      .st1 {
        fill: #ee6f00;
      }

      .st2 {
        fill: #fd9600;
      }

      .st3 {
        fill: #fedf98;
      }

      .st4 {
        fill: #7016d9;
      }
    </style>
  </defs>
  <path class="st1" d="M120.88,15.99c8.67-5.34,17.11-11.1,26.19-15.73-5.53,6.54-11.46,12.71-17.22,19.04-5.4,6.06-10.89,12.05-16.31,18.1-3.75,4.07-7.44,8.19-11.21,12.25-3.22,3.43-6.33,6.97-9.39,10.54,3.15-.03,6.31-.1,9.46-.2,7.23-.09,14.48-.18,21.71.08-6.34,4.6-12.65,9.24-19.07,13.74-14.43,10.99-29.54,21.05-44.96,30.6-.32.89-.66,1.77-1.01,2.64-.28-.37-.84-1.13-1.13-1.51-4.33,3.23-9.13,5.75-13.57,8.82-10.86,6.5-21.91,12.68-33.01,18.77-3.96,2.19-7.83,4.54-11.84,6.62,3.08-3.96,6.68-7.48,10.01-11.23l.24-.07c1.54-.46,3.08-.98,4.46-1.82,31.02-20.8,63.08-40.11,92.89-62.63-10.11-1.01-20.23.53-30.35,0,14.67-13.75,28.33-28.54,43.29-41.98,1.4-1.29,2.7-2.65,3.99-4.03-1.55.79-3.08,1.59-4.56,2.49-16.07,10.29-31.93,20.91-48,31.2-4.93,3.39-10.12,6.39-14.9,10,5.77.25,11.53.27,17.29.69-1.25,1.3-2.49,2.59-3.77,3.85-3.43-.03-6.84-.03-10.27-.02-5.26-.03-10.52.03-15.78-.12,5.02-3.94,10.58-7.11,15.9-10.6,20.27-13.22,40.66-26.26,60.93-39.49h0Z"/>
  <g>
    <path class="st4" d="M11.33,14.15c14.49.02,28.96-.02,43.45,0,7.97-.03,16.12,2.57,21.8,8.31-.04-2.85-.05-5.7-.04-8.55,11.16.29,22.32.13,33.47.24,3.71-.02,7.35.7,10.87,1.83-20.26,13.23-40.65,26.27-60.93,39.49-.32-6.03-.48-13.89-6.79-16.96-5.72-2.31-12.13-.87-18.13-1.26.07,21.48.02,42.97.03,64.45-7.9,8.24-15.87,16.4-23.66,24.74-.16-37.44-.03-74.87-.07-112.3h0Z"/>
    <path class="st4" d="M113.53,37.4c5.42-6.05,10.91-12.04,16.31-18.1,8.77,3.24,15.68,10.7,18.43,19.57,2.72,8.58,2.76,17.79,1.71,26.64-1.39,10.89-7.86,21.37-18,26.14-9.12,4.84-19.75,3.79-29.71,3.86.05,13.92-.01,27.84.02,41.76-7.91.01-15.81.01-23.72,0,.01-4.73.01-9.46-.01-14.2-4.81,9.45-15.62,14.18-25.89,14.25-13.79.05-27.59.03-41.37.02,0-1.4.02-2.81.03-4.21,11.1-6.09,22.15-12.27,33.01-18.77.06.21.16.63.21.85,6.05,1.15,12.95-1.87,14.49-8.16.35-.87.69-1.75,1.01-2.64,15.42-9.55,30.54-19.61,44.96-30.6,5.72-.1,12.13.72,17.01-2.91,4.27-3.18,5.22-8.89,5.3-13.86.03-5.32-.26-11.24-3.94-15.46-2.47-2.83-6.38-3.49-9.87-4.18h0Z"/>
    <path class="st4" d="M92.93,60.19c3.06-3.57,6.17-7.11,9.39-10.54.06,3.45.06,6.89.07,10.34-3.15.1-6.31.17-9.46.2Z"/>
    <path class="st4" d="M59.83,66.2c3.43-.01,6.84-.01,10.27.02-3.45,3.31-6.89,6.62-10.25,10.02-.01-3.35-.01-6.7-.02-10.04h0Z"/>
  </g>
  <path class="st2" d="M119.47,20.48c1.48-.9,3.01-1.7,4.56-2.49-1.29,1.38-2.59,2.74-3.99,4.03-14.96,13.44-28.62,28.23-43.29,41.98,10.12.53,20.24-1.01,30.35,0-29.82,22.52-61.87,41.83-92.89,62.63-1.38.84-2.92,1.36-4.46,1.82l1.65-2c7.79-8.34,15.76-16.5,23.66-24.74,8.25-8.51,16.49-17.01,24.79-25.47,3.36-3.4,6.8-6.71,10.25-10.02,1.28-1.26,2.52-2.55,3.77-3.85-5.76-.42-11.52-.44-17.29-.69,4.78-3.61,9.97-6.61,14.9-10,16.07-10.29,31.93-20.91,48-31.2h0ZM64.08,59.99c3.93-.26,8.53-.16,11.44-3.28,3.48-3.33,7.31-6.29,10.51-9.9-7.53,4-14.78,8.58-21.95,13.18ZM72.83,72.04c-8.74,8.97-17.73,17.71-26.28,26.87,4.31-2.6,7.73-6.35,11.57-9.54,6.74-6.18,13.88-11.94,20.15-18.59-1.86.07-4.14-.46-5.44,1.26Z"/>
  <g>
    <path class="st0" d="M395.53,46.68c4.41-1.52,9.17-.53,13.74-.82,8.85.07,18.92-.79,26.22,5.2,9.74,8.95,7.94,28.35-4.96,33.52-7.02,3.23-14.93,1.94-22.4,2.21-.08,7.33.21,14.68-.11,22-3.79,1.42-8.26.32-12.3.58-.34-20.89.01-41.79-.19-62.69h0ZM408.12,56.7c.06,6.91,0,13.83.03,20.74,4.71-.46,9.56-.13,14.17-1.27,7.4-1.95,8.56-12.58,3.7-17.57-5.17-3.78-11.98-1.43-17.9-1.9h0Z"/>
    <path class="st0" d="M171.08,46.18c5.7-.67,11.45-.19,17.18-.33,7.54-.14,15.45.57,22.08,4.48,8.99,5.11,14.16,15.52,13.9,25.69.43,8.6-1.64,17.7-7.36,24.36-5.07,5.27-12.38,7.68-19.48,8.67-8.74.77-17.59.39-26.36.21-.14-21.02-.13-42.05.04-63.08h0ZM183.52,56.26c-.08,14.2,0,28.4.04,42.59,6.86.06,14.45.8,20.37-3.37,5.48-3.42,7.52-10.29,7.02-16.43.48-6.61-.75-13.97-5.94-18.61-5.55-5.76-14.32-3.95-21.5-4.18Z"/>
    <path class="st0" d="M277.23,45.45c4.04-.14,8.08-.1,12.12,0-.17,21.3.11,42.6-.13,63.9-3.98.15-7.98.15-11.94-.22-.14-21.22-.07-42.44-.04-63.67h0Z"/>
    <path class="st0" d="M308.04,63.87c6.63-2.47,14.44-2.35,20.66,1.15,4.32,2.27,6.32,7.28,6.44,11.94.22,10.82.74,21.63.4,32.45-2.67.03-5.33.03-8.01.04-.6-1.83-1.2-3.67-1.93-5.45-5.04,5.19-12.64,7.26-19.71,6.01-9.62-1.73-12.78-15.16-7.47-22.38,5.19-6.33,14.2-4.75,21.36-6.6,1.36-.25,2.72-.53,4.08-.82-.11-2.61-.36-5.76-2.91-7.22-3.53-1.94-8.74-1.41-11.27,1.92-1.8,3.25-5.89,1.53-8.88,2.04-1.15.07-4.63.29-2.94-1.84,1.42-5.07,5.21-9.4,10.19-11.24h0ZM309.35,91.76c-2.63,3.03-1.55,9.18,2.98,9.71,4.72.45,9.57-2.38,11.8-6.5-.24-2.92-.49-5.84-.59-8.77-4.5,2.44-9.5,3.63-14.19,5.56Z"/>
    <path class="st0" d="M356.01,69.16c5.96-4.35,13.42-8.74,21.07-6.26,5.81,1.52,8.67,7.68,9,13.21,1.04,11.06.42,22.2.59,33.3-3.95.02-7.9.08-11.83-.15-.25-8.41.03-16.83-.1-25.24-.34-3.31-.32-7.18-2.74-9.75-2.35-2.48-5.98-1.41-8.99-1.65-2.67,1.2-5.81,3.04-5.88,6.35-1.31,10.06-.36,20.24-.72,30.36-3.88.15-7.75.1-11.61.08.12-15.39.29-30.8-.1-46.19,3.41-.13,6.82-.03,10.23.2.34,1.92.71,3.83,1.09,5.74h0Z"/>
    <path class="st0" d="M462.14,62.89c7.51-1.77,16.07-.32,21.91,4.93,4.17,4.27,6.28,10.3,6.15,16.22.37,6.94-.33,14.72-5.55,19.89-5.81,6.14-15.04,7.32-23.02,5.91-5.62-1.05-10.8-4.66-13.17-9.92-2.97-5.86-2.94-12.62-2.49-19.01.56-8.79,7.33-16.66,16.17-18.02h0ZM464.02,72.64c-2.93.78-4.59,3.65-5.3,6.4-1.17,3.55-.93,7.33-.8,11.01.71,4.14,2.18,9.15,6.69,10.55,3.27.66,7.05.62,9.8-1.54,3.04-2.81,3.39-7.23,3.76-11.1,0-4.49-.5-9.4-3.46-13.01-2.7-2.75-7.09-3.77-10.69-2.31h0Z"/>
    <path class="st0" d="M499.43,66.72c5.35-4.39,12.86-5.31,19.49-4.02,6.93.89,13.43,5.94,14.55,13.04-3.85,0-7.69,0-11.54-.07-1.81-2.75-4.44-5.49-8.07-5.06-3.38-.41-7.49,1.59-7.66,5.31.32,2.71,3.05,4.27,5.52,4.78,5.27.63,10.89.33,15.69,2.95,5.66,2.69,8.96,10.07,6.01,15.84-1.98,5.87-8,9.15-13.76,10.32-6.94,1.18-14.81.57-20.42-4.08-2.96-2.3-4.47-5.86-5.22-9.42,3.78-.11,7.55.01,11.34-.06,2.41,7.38,15.63,7.63,17.34-.27-1.07-5-6.8-5.37-10.94-5.77-4.38-.05-9.2-.43-12.55-3.61-5.99-4.95-5.39-14.91.24-19.88h0Z"/>
    <path class="st0" d="M226.85,63.87c4.26-.67,8.59-.36,12.87-.06,3.83,11.39,7.05,22.97,10.63,34.43l.56-1.04c2.65-10.92,6.41-21.55,9.19-32.45,3.89-2.45,8.87-.8,13.23-1.2-6.02,16.48-11.65,33.09-17.66,49.57-2.17,5.81-6.23,11.52-12.41,13.46-3.38,1.35-7.04,1.19-10.59.91.12-3.26.15-6.53.48-9.78,2.6-.24,5.78.77,7.84-1.32,1.38-1.48,3.09-3.23,2.93-5.39-.86-3.37-2.37-6.52-3.53-9.79-4.77-12.35-9.03-24.89-13.55-37.34h0Z"/>
  </g>
  <g>
    <path class="st3" d="M64.08,59.99c7.17-4.6,14.42-9.18,21.95-13.18-3.19,3.61-7.03,6.57-10.51,9.9-2.91,3.12-7.51,3.02-11.44,3.28Z"/>
    <path class="st3" d="M72.83,72.04c1.31-1.72,3.59-1.19,5.44-1.26-6.27,6.65-13.41,12.41-20.15,18.59-3.85,3.19-7.26,6.94-11.57,9.54,8.55-9.16,17.54-17.9,26.28-26.87Z"/>
  </g>
</svg>