<svg width="24" height="24" viewBox="0 0 24 24" fill="none" xmlns="http://www.w3.org/2000/svg">
<path d="M20.2299 15.6355C19.8698 15.6392 19.5832 15.3322 19.5803 14.9395C19.5774 14.5445 19.8573 14.2311 20.2156 14.228C20.5775 14.2249 20.8619 14.5295 20.865 14.9236C20.868 15.3192 20.5893 15.6318 20.2299 15.6355ZM22.4104 11.3477C19.8826 12.9325 17.3538 14.5155 14.8244 16.0976C14.48 16.3134 14.2252 16.2545 13.9745 15.9117C13.5482 15.3277 13.1229 14.7422 12.6966 14.1582C12.6554 14.1014 12.6096 14.0482 12.5424 13.9642V21.1945C12.6361 21.1408 12.7091 21.1019 12.7802 21.0586C15.1307 19.6476 17.4805 18.2351 19.8316 16.8254C19.9231 16.7704 20.0197 16.7136 20.1201 16.6907C20.3861 16.6302 20.6341 16.7852 20.7346 17.056C20.834 17.325 20.7537 17.6233 20.5235 17.786C20.3579 17.9022 20.1818 18.0012 20.0089 18.1044C17.4924 19.6163 14.9731 21.1224 12.4617 22.6455C12.1217 22.852 11.8434 22.8506 11.4988 22.6498C8.86029 21.1101 6.21463 19.5866 3.56761 18.0642C3.29024 17.9048 3.17628 17.6829 3.17802 17.3429C3.18594 15.7618 3.17918 14.1813 3.18478 12.601C3.18594 12.4336 3.1419 12.3382 3.00572 12.2561C2.7494 12.1022 2.49637 11.9414 2.24276 11.7814C2.1908 11.7487 2.13884 11.7159 2.08688 11.6832V11.685L2.24276 11.7814L1.53155 11.3426C1.19817 11.1369 1.09811 10.662 1.31541 10.3173C1.41991 10.1461 1.52383 9.97481 1.62775 9.8043C2.17554 8.90255 2.72391 8.0008 3.27672 7.10254C3.3395 7.00061 3.44786 6.91845 3.55178 6.86202C6.26408 5.39747 8.97985 3.9393 11.6929 2.47578C11.9199 2.35284 12.1204 2.393 12.3361 2.50482C14.8414 3.80216 17.3426 5.10814 19.8584 6.37892C20.3813 6.64292 20.7649 6.99073 21.0556 7.53602C21.5555 8.4736 22.11 9.37659 22.6408 10.2946C22.9097 10.7588 22.8419 11.0778 22.4104 11.3477ZM9.3482 14.8326C9.94119 14.0192 10.5239 13.2194 11.1272 12.3924C8.71059 10.9966 6.31951 9.61588 3.91761 8.22896C3.44032 9.01025 2.97617 9.76991 2.50178 10.5463C4.79126 11.9795 7.0649 13.4029 9.3482 14.8326ZM11.4071 13.9568C10.9276 14.6145 10.4764 15.235 10.0241 15.8544C9.7123 16.2821 9.49829 16.3266 9.06291 16.054C7.54258 15.1028 6.02186 14.1502 4.50152 13.1984C4.43836 13.1588 4.37269 13.1236 4.28693 13.0736C4.28693 14.3697 4.29079 15.6256 4.28307 16.8822C4.28191 17.0564 4.33947 17.1376 4.47274 17.2142C6.55883 18.4133 8.64222 19.6179 10.726 20.8208C10.9485 20.9493 11.171 21.0761 11.4071 21.2114V13.9568ZM18.8351 7.39331C18.8791 7.36675 18.9175 7.32906 18.9678 7.28953C18.9293 7.2642 18.9123 7.25061 18.8938 7.24072C16.631 6.07065 14.3685 4.89933 12.1022 3.73688C12.0306 3.70043 11.9102 3.7202 11.8339 3.76097C9.77431 4.86186 7.71758 5.96933 5.66085 7.07577C5.43544 7.19686 5.21195 7.32124 4.97244 7.45221C5.02054 7.48495 5.04874 7.50781 5.07984 7.52511C7.33706 8.82924 9.59428 10.1346 11.855 11.4313C11.9228 11.4703 12.0458 11.4585 12.1165 11.4165C14.3585 10.0794 16.597 8.73637 18.8351 7.39331ZM21.4684 10.538C20.9805 9.69619 20.5099 8.88463 20.0328 8.06134C17.6288 9.50262 15.2389 10.9361 12.824 12.3842C13.4311 13.2167 14.0185 14.0221 14.6104 14.8337C16.9031 13.3973 19.1818 11.9702 21.4684 10.538Z" fill="#171717"/>
</svg>
